<svg width="960" height="720" xmlns="http://www.w3.org/2000/svg" xmlns:xlink="http://www.w3.org/1999/xlink" overflow="hidden"><g><rect x="0" y="0" width="960" height="720" fill="#FFFFFF"/><g><path d="M480 167.664C609.388 167.664 714.278 272.554 714.278 401.942 714.278 531.331 609.388 636.221 480 636.221 350.612 636.221 245.722 531.331 245.722 401.942 245.722 382.29 248.194 362.715 253.082 343.68L480 401.942Z" stroke="#FFFFFF" stroke-width="2" stroke-linejoin="round" stroke-miterlimit="10" fill="#12436D" fill-rule="evenodd"/></g><g><path d="M253.082 343.68C279.679 240.091 373.051 167.664 480 167.664L480 401.942Z" stroke="#FFFFFF" stroke-width="2" stroke-linejoin="round" stroke-miterlimit="10" fill="#28A197" fill-rule="evenodd"/></g><g><text fill="#FFFFFF" font-family="Aptos,Aptos_MSFontService,sans-serif" font-weight="700" font-size="32" transform="translate(521.242 505)">79%</text></g><g><text fill="#FFFFFF" font-family="Aptos,Aptos_MSFontService,sans-serif" font-weight="700" font-size="32" transform="translate(377.651 320)">21%</text></g><g><text font-family="Aptos,Aptos_MSFontService,sans-serif" font-weight="400" font-size="37.3333" transform="translate(134.36 68)">Does your BSO currently use smart clinics?</text></g><g><rect x="228" y="116" width="13" height="13" stroke="#FFFFFF" stroke-width="2" stroke-linejoin="round" stroke-miterlimit="10" fill="#12436D"/></g><g><text font-family="Aptos,Aptos_MSFontService,sans-serif" font-weight="400" font-size="24" transform="translate(247.524 130)">Using smart clinics</text></g><g><rect x="484" y="116" width="13" height="13" stroke="#FFFFFF" stroke-width="2" stroke-linejoin="round" stroke-miterlimit="10" fill="#28A197"/></g><g><text font-family="Aptos,Aptos_MSFontService,sans-serif" font-weight="400" font-size="24" transform="translate(503.132 130)">Not using smart clinics</text></g><text font-family="Aptos,Aptos_MSFontService,sans-serif" font-weight="400" font-size="24" transform="translate(217.129 676)">(58 responses)</text></g></svg>