<svg width="960" height="720" xmlns="http://www.w3.org/2000/svg" xmlns:xlink="http://www.w3.org/1999/xlink" overflow="hidden"><g><rect x="0" y="0" width="960" height="720" fill="#FFFFFF"/><g><path d="M479.333 183.292C611.442 183.292 718.537 290.388 718.537 422.496 718.537 554.605 611.442 661.7 479.333 661.7 347.225 661.7 240.129 554.605 240.129 422.496 240.129 402.43 242.654 382.444 247.644 363.009L479.333 422.496Z" stroke="#FFFFFF" stroke-width="2" stroke-linejoin="round" stroke-miterlimit="10" fill="#12436D" fill-rule="evenodd"/></g><g><path d="M247.644 363.009C274.801 257.242 370.136 183.292 479.333 183.292L479.333 422.496Z" stroke="#FFFFFF" stroke-width="2" stroke-linejoin="round" stroke-miterlimit="10" fill="#28A197" fill-rule="evenodd"/></g><g><text fill="#FFFFFF" font-family="Aptos,Aptos_MSFontService,sans-serif" font-weight="700" font-size="32" transform="translate(522.085 527)">79%</text></g><g><text fill="#FFFFFF" font-family="Aptos,Aptos_MSFontService,sans-serif" font-weight="700" font-size="32" transform="translate(375.475 338)">21%</text></g><g><text font-family="Aptos,Aptos_MSFontService,sans-serif" font-weight="400" font-size="37.3333" transform="translate(134.793 75)">Does your BSO currently use smart clinics?</text></g><g><rect x="178" y="125" width="13" height="13" stroke="#FFFFFF" stroke-width="2" stroke-linejoin="round" stroke-miterlimit="10" fill="#12436D"/></g><g><text font-family="Aptos,Aptos_MSFontService,sans-serif" font-weight="400" font-size="24" transform="translate(197.4 139)">79% using smart clinics</text></g><g><rect x="487" y="125" width="14" height="13" stroke="#FFFFFF" stroke-width="2" stroke-linejoin="round" stroke-miterlimit="10" fill="#28A197"/></g><g><text font-family="Aptos,Aptos_MSFontService,sans-serif" font-weight="400" font-size="24" transform="translate(506.678 139)">21% not using smart clinics</text></g><text font-family="Aptos,Aptos_MSFontService,sans-serif" font-weight="400" font-size="24" transform="translate(785.948 680)">58 responses</text></g></svg>